<svg width="23" height="23" viewBox="0 0 23 23" fill="none" xmlns="http://www.w3.org/2000/svg">
<path d="M11.4983 0C17.8506 0.00339554 23.002 5.14424 23 11.5041C22.998 17.8612 17.8465 23.0054 11.4908 23C5.13586 22.9932 -0.00407258 17.8456 2.42136e-06 11.4925C0.00407742 5.1422 5.14741 0.00747018 11.4983 0ZM9.12597 19.3579C12.8369 15.7064 16.5452 12.0575 20.2575 8.40463C19.4154 7.54895 18.5807 6.70075 17.7453 5.85186C14.8894 8.66201 12.0403 11.466 9.18506 14.2755C7.88378 12.935 6.58725 11.5998 5.28596 10.2593C4.42614 11.0939 3.57242 11.9217 2.71531 12.7536C4.85605 14.9587 6.98931 17.157 9.12597 19.3579Z" fill="#25758A"/>
</svg>
